<svg xmlns="http://www.w3.org/2000/svg" viewBox="0 0 600 600" width="600" height="600">
  <rect width="600" height="600" fill="#c8b89a"/>
  <!-- Tote body -->
  <path d="M155 220 L145 490 L455 490 L445 220 Z" fill="#b8a882" stroke="#9a8c6e" stroke-width="2"/>
  <!-- Tote top fold -->
  <rect x="152" y="210" width="297" height="22" rx="2" fill="#a89870" stroke="#9a8c6e" stroke-width="1.5"/>
  <!-- Left handle -->
  <path d="M210 210 C210 150 260 120 300 120 C340 120 390 150 390 210" fill="none" stroke="#9a8c6e" stroke-width="12" stroke-linecap="round"/>
  <path d="M210 210 C210 150 260 120 300 120 C340 120 390 150 390 210" fill="none" stroke="#b8a882" stroke-width="7" stroke-linecap="round"/>
  <!-- Side seams -->
  <line x1="210" y1="232" x2="200" y2="490" stroke="#9a8c6e" stroke-width="1.5"/>
  <line x1="390" y1="232" x2="400" y2="490" stroke="#9a8c6e" stroke-width="1.5"/>
  <!-- Bottom seam -->
  <line x1="148" y1="460" x2="452" y2="460" stroke="#9a8c6e" stroke-width="1.5"/>
  <!-- MMG text -->
  <text x="300" y="375" font-family="Georgia, serif" font-size="64" font-weight="bold" fill="#3d3020" text-anchor="middle" letter-spacing="4">MMG</text>
  <text x="300" y="408" font-family="monospace" font-size="13" fill="#3d3020" text-anchor="middle" letter-spacing="3">STELLAR</text>
</svg>
